<?xml version="1.0" encoding="UTF-8" standalone="no"?>
<svg
   xmlns:ns="&amp;#38;ns_sfw;"
   xmlns:dc="http://purl.org/dc/elements/1.1/"
   xmlns:cc="http://creativecommons.org/ns#"
   xmlns:rdf="http://www.w3.org/1999/02/22-rdf-syntax-ns#"
   xmlns:svg="http://www.w3.org/2000/svg"
   xmlns="http://www.w3.org/2000/svg"
   xml:space="preserve"
   enable-background="new 0 0 353.746 353.777"
   viewBox="0 0 320 319.99999"
   height="320"
   width="320"
   y="0px"
   x="0px"
   id="Layer_1"
   version="1.1"><defs
   id="defs205" />
<metadata
   id="metadata3">
	<ns:sfw>
		<ns:slices />
		<ns:sliceSourceBounds
   bottomLeftOrigin="true"
   width="491.91"
   x="-63.62"
   y="438.33"
   height="355.67" />
	</ns:sfw>
<rdf:RDF><cc:Work
     rdf:about=""><dc:format>image/svg+xml</dc:format><dc:type
       rdf:resource="http://purl.org/dc/dcmitype/StillImage" /><dc:title></dc:title></cc:Work></rdf:RDF></metadata>

<rect
   y="0"
   x="0"
   height="320"
   width="320"
   id="rect3554"
   style="opacity:1;fill:#2c2825;fill-opacity:1" /><path
   style="fill:#9fa5a3;fill-opacity:1;fill-rule:evenodd;stroke:none"
   d="M 142.51625,126.05096 87.168418,94.110843 31.820679,126.05096 87.168418,157.95704 Z"
   id="path3538" /><path
   style="fill:#e7f0f5;fill-opacity:1;fill-rule:evenodd;stroke:none"
   d="m 31.820679,126.05096 0,63.84591 55.347739,31.90688 0,-63.84671 z"
   id="path3540" /><path
   style="fill:#e7f0f5;fill-opacity:1;fill-rule:nonzero;stroke:none"
   d="m 111.40016,197.21806 c 1.9426,5.65293 10.25841,6.64042 15.30237,5.20963 3.68097,-1.05481 6.57809,-3.47306 6.61176,-7.38846 0.0683,-6.57215 -5.24811,-7.25312 -10.49697,-7.96822 -4.02156,-0.51078 -8.07725,-1.02153 -8.00908,-5.00559 0,-2.41759 1.9426,-3.98395 4.49868,-4.73309 3.61261,-1.02157 8.92945,-0.78317 11.07658,2.82624 l 2.31732,-1.49828 c -2.21539,-4.90337 -9.57677,-5.41416 -14.14361,-4.15423 -3.71492,1.08959 -6.57772,3.57541 -6.6459,7.55936 -0.0682,6.64001 5.18041,7.25302 10.49706,7.96801 4.0556,0.51058 8.07706,1.02117 8.0434,5.0058 0,2.31538 -1.97693,3.88174 -4.49896,4.5625 -3.54444,0.9875 -9.98581,0.9875 -12.06476,-3.98368 z m 27.0603,-29.86281 3.27213,0 0,-5.1077 -3.27213,0 z m 0.17018,35.31091 2.93174,0 0,-28.26231 -2.93174,0 z m 11.31544,-8.47887 c -1.97694,1.83943 -2.25002,2.92887 -2.25002,4.90386 l 0,3.57501 2.89713,0 0,-3.57501 c 0,-1.15768 0.17019,-1.66826 1.02308,-2.48558 l 6.64522,-6.33369 0.0346,0 6.64521,6.33369 c 0.92021,0.81732 1.05675,1.3279 1.05675,2.48558 l 0,3.57501 2.93078,0 0,-3.57501 c 0,-1.97499 -0.34041,-3.06443 -2.24906,-4.90386 l -5.99809,-5.65214 5.99809,-5.65251 c 1.90867,-1.83878 2.24906,-2.96243 2.24906,-4.90338 l 0,-3.57541 -2.93078,0 0,3.57541 c 0,1.19182 -0.13656,1.66857 -1.05675,2.48577 l -6.64521,6.33358 -0.0346,0 -6.64522,-6.33358 c -0.85289,-0.8172 -1.02308,-1.29395 -1.02308,-2.48577 l 0,-3.57541 -2.89713,0 0,3.57541 c 0,1.94095 0.27307,3.0646 2.25002,4.90338 l 5.92983,5.65251 z m 23.82221,3.03077 c 1.97693,5.65293 10.29234,6.64042 15.30294,5.20963 3.6808,-1.05481 6.57792,-3.47306 6.64522,-7.38846 0.0346,-6.57215 -5.24809,-7.25312 -10.49619,-7.96822 -4.05579,-0.51078 -8.11158,-1.02153 -8.0433,-5.00559 0,-2.41759 1.97597,-3.98395 4.49809,-4.73309 3.64713,-1.02157 8.9635,-0.78317 11.07698,2.82624 l 2.3173,-1.49828 c -2.18077,-4.90337 -9.57695,-5.41416 -14.14332,-4.15423 -3.68078,1.08959 -6.57791,3.57541 -6.61253,7.55936 -0.0673,6.64001 5.1808,7.25302 10.49716,7.96801 4.02213,0.51058 8.07792,1.02117 8.00965,5.0058 0,2.31538 -1.94327,3.88174 -4.49906,4.5625 -3.51059,0.9875 -9.98562,0.9875 -12.06447,-3.98368 z m 27.06069,-29.86281 3.30578,0 0,-5.1077 -3.30578,0 z m 0.20479,35.31091 2.93078,0 0,-28.26231 -2.93078,0 z m 28.01453,-40.58882 0,15.59545 c -4.70291,-5.58444 -18.67699,-3.5072 -18.67699,5.07367 l 0,12.76969 0,0 c 0,3.77885 2.89712,6.23079 6.57791,7.18463 4.26061,1.1577 10.05389,0.0682 12.33754,-3.20095 l 0,3.16633 2.65868,0 c 0,-13.55205 0,-27.10454 0,-40.58882 z m 0,32.14457 c 0,4.39233 -4.26058,6.12886 -7.87309,6.12886 -1.15866,0 -2.38561,-0.10187 -3.40772,-0.40864 -2.55675,-0.6808 -4.49906,-2.17888 -4.49906,-4.42598 l 0.0348,0 0,-12.87181 c 0,-7.253 15.74527,-6.67404 15.74527,-0.40863 z M 240.60124,181.793 c 0,-2.24739 1.97693,-3.7456 4.46539,-4.46067 2.18078,-0.57886 4.6683,-0.57886 6.85002,0 5.14621,1.46421 6.06638,8.37655 1.15868,10.69204 -3.8856,1.83885 -9.98563,1.19185 -12.47409,1.29407 z m 0,10.07891 c 3.88558,0 9.81544,0.81731 13.87121,-1.39618 6.95292,-3.67712 5.69136,-13.65418 -1.80577,-15.9016 -2.72692,-0.74914 -5.65773,-0.74914 -8.35004,0 -3.78269,1.02152 -6.64618,3.40513 -6.64618,7.21887 l 0,12.80294 c 0,1.60097 0.34135,3.0308 1.26156,4.35869 1.49903,2.04327 4.15768,3.3375 7.08849,3.81442 1.73847,0.27223 3.30578,0.23747 5.04426,-0.0682 2.93076,-0.44326 5.75963,-1.60096 7.42983,-4.32499 l -2.48847,-1.49811 0,0 0,0 c -1.26061,1.80481 -3.23754,2.65578 -5.351,2.96252 -1.5673,0.27222 -2.99904,0.27222 -4.56635,0 -2.0106,-0.34036 -3.81735,-1.29423 -4.80579,-2.62213 -0.51059,-0.74904 -0.68175,-1.49807 -0.68175,-2.41733 z m 42.46558,-29.79457 0,15.59545 c -4.70291,-5.58444 -18.67607,-3.5072 -18.67607,5.07367 l 0,12.76969 0,0 c 0,3.77885 2.86253,6.23079 6.57695,7.18463 4.26061,1.1577 10.02025,0.0682 12.33758,-3.20095 l 0,3.16633 2.65865,0 c 0,-13.55205 0,-27.10454 0,-40.58882 z m 0,32.14457 c 0,4.39233 -4.26061,6.12886 -7.90679,6.12886 -1.125,0 -2.35191,-0.10187 -3.37406,-0.40864 -2.55575,-0.6808 -4.53269,-2.17888 -4.53269,-4.42598 l 0.0682,0 0,-12.87181 c 0,-7.253 15.74525,-6.67404 15.74525,-0.40863 z m -165.6685,11.81541 0,5.85678 c -1.77221,-2.1106 -7.0207,-1.3279 -7.0207,1.87308 l 0,4.80096 0,0 c 0,1.43079 1.09068,2.31543 2.45386,2.6904 1.60183,0.4423 3.78299,0.0341 4.63502,-1.19133 l 0,1.19133 0.98837,0 c 0,-5.10769 0,-10.18176 0,-15.22122 z m 0,12.05486 c 0,1.63367 -1.60173,2.28081 -2.96501,2.28081 -0.44308,0 -0.88606,-0.0341 -1.2951,-0.1356 -0.95423,-0.27325 -1.66991,-0.81732 -1.66991,-1.66925 l 0,0 0,-4.83466 c 0,-2.72402 5.93002,-2.48652 5.93002,-0.13661 z m 9.98581,-4.6654 c 0,-0.85094 0.71568,-1.4298 1.63588,-1.66825 0.81826,-0.2385 1.77212,-0.2385 2.59039,0 1.94232,0.51058 2.28366,3.1327 0.44327,3.98364 -1.46635,0.6808 -3.74905,0.47695 -4.66954,0.51058 z m 0,3.77984 c 1.43107,0 3.64646,0.27223 5.18012,-0.51058 2.62405,-1.39617 2.14713,-5.14234 -0.68173,-5.99328 -0.98847,-0.27223 -2.11251,-0.27223 -3.13559,0 -1.39684,0.40863 -2.48751,1.29422 -2.48751,2.72402 l 0,4.801 c 0,0.57886 0.13635,1.15768 0.47721,1.63463 0.54529,0.74904 1.56799,1.25962 2.65838,1.42979 0.64712,0.1029 1.22693,0.0682 1.87405,-0.0341 1.125,-0.17 2.18174,-0.61252 2.7952,-1.60002 l -0.92019,-0.57884 0,0 0,0 c -0.47693,0.68079 -1.22694,0.98752 -2.01059,1.08943 -0.57982,0.10187 -1.12501,0.10187 -1.70481,0 -0.74905,-0.10188 -1.43078,-0.44326 -1.80579,-0.95383 -0.20462,-0.27223 -0.23876,-0.57886 -0.23876,-0.91926 z m 18.7446,4.15387 2.93079,-2.79235 c 0.71635,-0.68075 0.85193,-1.08939 0.85193,-1.83843 l 0,-6.09524 -1.09039,0 0,6.09524 c 0,0.47691 -0.0682,0.64709 -0.37501,0.95383 l -2.52213,2.38367 -2.52212,-2.38367 c -0.30674,-0.30664 -0.37405,-0.47692 -0.37405,-0.95383 l 0,-6.09524 -1.09134,0 0,6.09524 c 0,0.74904 0.13655,1.15768 0.85288,1.83843 l 2.93078,2.79235 z m 12.40582,-7.93371 c 0,-0.85094 0.75001,-1.4298 1.67021,-1.66825 0.81731,-0.2385 1.77211,-0.2385 2.58943,0 1.90866,0.51058 2.25001,3.1327 0.40962,3.98364 -1.43174,0.6808 -3.71541,0.47695 -4.66926,0.51058 z m 0,3.77984 c 1.4654,0 3.68079,0.27223 5.21445,-0.51058 2.58944,-1.39617 2.14713,-5.14234 -0.68173,-5.99328 -1.02308,-0.27223 -2.11346,-0.27223 -3.13559,0 -1.39713,0.40863 -2.48751,1.29422 -2.48751,2.72402 l 0,4.801 c 0,0.57886 0.10193,1.15768 0.47692,1.63463 0.5452,0.74904 1.56731,1.25962 2.6577,1.42979 0.64809,0.1029 1.22694,0.0682 1.87501,-0.0341 1.0904,-0.17 2.18079,-0.61252 2.79424,-1.60002 l -0.92019,-0.57884 0,0 0,0 c -0.47693,0.68079 -1.22693,0.98752 -2.01059,1.08943 -0.5798,0.10187 -1.125,0.10187 -1.70385,0 -0.78365,-0.10188 -1.46539,-0.44326 -1.80674,-0.95383 -0.20384,-0.27223 -0.27212,-0.57886 -0.27212,-0.91926 z m 17.27892,3.16637 c -1.125,0 -1.56731,-0.27223 -1.56731,-1.39618 l 0,-12.90488 -1.09135,0 0,12.87123 c 0,1.94041 0.88655,2.4856 2.65866,2.38366 z m 12.78083,-0.30595 c -0.75,0.23747 -1.60193,0.30595 -2.38655,0.17001 -1.12404,-0.20476 -2.11251,-0.81731 -2.11251,-1.80485 l 0,-5.00575 c 0,-0.8856 0.75,-1.42984 1.67019,-1.6683 0.40866,-0.10289 0.85194,-0.17001 1.29521,-0.17001 0.47693,0 0.92019,0.0675 1.29423,0.17001 0.95482,0.23849 1.67021,0.81731 1.67021,1.6683 l 0,0 0,5.00575 c 0,0.7827 -0.61347,1.32789 -1.43078,1.63463 z m 2.52116,-6.64043 0,0 c 0,-1.42983 -1.09038,-2.35 -2.45386,-2.72407 -0.51058,-0.13661 -1.05577,-0.20476 -1.60096,-0.20476 -0.51154,0 -1.05674,0.0682 -1.56828,0.20476 -1.39712,0.37407 -2.45385,1.29424 -2.45385,2.72407 l 0,5.00579 c 0,1.63464 1.36347,2.55386 2.99904,2.82597 0.95482,0.17001 1.97694,0.13663 2.89713,-0.20476 1.26059,-0.40768 2.18078,-1.29327 2.18078,-2.62117 z m 8.82696,12.46255 0,-5.72022 c 1.77308,2.07693 7.02118,1.32789 7.02118,-1.90676 l 0,-4.90384 0,0 c 0,-1.4298 -1.09038,-2.3154 -2.45385,-2.72403 -1.60193,-0.44233 -3.78271,0 -4.63463,1.22595 l 0,-1.19233 -0.98847,0 c 0,5.07407 0,10.14815 0,15.22123 z m 0,-12.05391 c 0,-1.63459 1.60193,-2.31539 2.9654,-2.31539 0.44327,0 0.88654,0.0682 1.2952,0.17001 0.95384,0.27222 1.6702,0.81732 1.6702,1.6683 l 0,0 0,4.93752 c 0,2.72406 -5.9308,2.52018 -5.9308,0.13661 z m 22.3578,-0.40864 c 0,-1.29422 1.36346,-1.90675 2.69231,-1.90675 1.32884,0 2.65864,0.61253 2.65864,2.00866 l 0,7.72985 1.12406,0 0,-7.69524 c 0,-2.04327 -1.90866,-2.9971 -3.7827,-3.03077 -1.22695,0 -2.59041,0.47692 -3.16923,1.49808 -0.47791,-1.02116 -1.70482,-1.53269 -3.0337,-1.53269 -1.02211,0 -2.14711,0.27324 -2.93077,1.15771 l 0,-1.02115 -1.125,0 0,10.62406 1.125,0 0,-7.55964 c 0,-1.32789 1.36346,-2.17887 2.76059,-2.21348 1.26057,-0.0341 2.59041,0.61347 2.59041,1.94136 l 0,7.83176 c 0.37497,0 0.71538,0 1.09039,0 z m 15.54043,0 c 0,-0.85098 0.71636,-1.42983 1.67019,-1.66829 0.81827,-0.23849 1.73848,-0.23849 2.55675,0 1.94232,0.51058 2.28272,3.13271 0.4423,3.98368 -1.46537,0.68076 -3.74904,0.47692 -4.66924,0.51058 z m 0,3.7798 c 1.43173,0 3.68079,0.27223 5.18081,-0.51057 2.62403,-1.39614 2.14711,-5.14231 -0.64714,-5.9933 -1.02306,-0.27222 -2.14711,-0.27222 -3.17022,0 -1.39709,0.40869 -2.48747,1.29424 -2.48747,2.72407 l 0,4.80096 c 0,0.57886 0.13662,1.15772 0.47691,1.63464 0.57981,0.74904 1.56731,1.25961 2.69231,1.42982 0.6481,0.1029 1.22695,0.0682 1.87501,-0.0341 1.09038,-0.17001 2.14715,-0.61252 2.79424,-1.60002 l -0.95383,-0.57885 0,0 0,0 c -0.47791,0.6808 -1.19329,0.9875 -2.01155,1.08944 -0.57886,0.10187 -1.12406,0.10187 -1.70387,0 -0.74999,-0.10188 -1.43173,-0.44326 -1.80576,-0.95383 -0.17104,-0.27223 -0.23952,-0.57886 -0.23952,-0.91926 z m 22.66451,4.05196 0,-7.72985 c 0,-2.11056 -2.04518,-3.06443 -4.05577,-3.06443 -1.02212,0.0341 -2.14712,0.27222 -2.93077,1.12405 l 0,-0.9875 -1.12501,0 0,10.65773 1.12501,0 0,-7.59329 c 0,-1.46442 1.49903,-2.14522 2.96443,-2.14522 1.46635,0 2.93172,0.71443 2.93172,1.97503 l 0,7.76348 z m 8.86062,-15.18661 0,4.56255 -1.84038,0 0,0.98749 1.84038,0 0,6.67405 c 0,2.38367 1.90865,3.09905 3.85193,2.99618 l 0,-0.98752 c -1.43174,-0.0675 -2.76059,-0.23747 -2.76059,-2.04233 l 0,-6.60672 c 0.85194,-0.0341 1.70387,-0.0341 2.58946,-0.0341 l 0,-0.98752 -2.58946,0 0,-4.56251 z m 10.56543,13.14334 c 0.75,2.11155 3.85098,2.48557 5.75964,1.94134 1.36346,-0.37498 2.45386,-1.29423 2.48847,-2.75865 0,-2.48561 -1.97694,-2.72407 -3.95388,-2.99618 -1.49902,-0.20476 -3.0327,-0.37498 -2.99904,-1.87309 0,-0.91922 0.71542,-1.49808 1.67021,-1.7702 1.36346,-0.40864 3.37405,-0.30663 4.1577,1.05482 l 0.88559,-0.57885 c -0.85192,-1.83848 -3.61251,-2.04231 -5.31637,-1.53175 -1.39713,0.37407 -2.48752,1.3279 -2.48752,2.82598 -0.0348,2.4856 1.94232,2.72406 3.95292,2.99714 1.49999,0.17035 2.99905,0.37406 2.99905,1.87213 0,0.85193 -0.74904,1.43075 -1.70386,1.70288 -1.29519,0.37405 -3.74904,0.37405 -4.49808,-1.49808 z"
   id="path3542" /></svg>